<?xml version="1.0" standalone="no"?>
<!DOCTYPE svg PUBLIC "-//W3C//DTD SVG 20010904//EN"
 "http://www.w3.org/TR/2001/REC-SVG-20010904/DTD/svg10.dtd">
<svg version="1.0" xmlns="http://www.w3.org/2000/svg"
 width="1500.000000pt" height="1500.000000pt" viewBox="0 0 1500.000000 1500.000000"
 preserveAspectRatio="xMidYMid meet">

<g transform="translate(0.000000,1500.000000) scale(0.100000,-0.100000)"
fill="#000000" stroke="none">
<path d="M8365 13431 c-33 -15 -90 -81 -142 -166 -82 -131 -106 -166 -113
-158 -4 5 -19 49 -35 98 -43 142 -72 185 -124 185 -41 0 -81 -37 -177 -165
-45 -60 -110 -138 -144 -172 -62 -61 -154 -121 -163 -106 -3 5 6 62 19 128 14
66 23 134 22 150 -3 29 -5 30 -56 33 -49 3 -62 -2 -152 -53 -260 -146 -514
-236 -749 -263 l-73 -9 6 41 c4 23 9 78 13 124 6 81 5 84 -22 112 -50 53 -60
47 -295 -160 l-215 -189 -70 74 c-79 84 -187 158 -320 221 -128 61 -189 75
-345 81 -123 5 -144 3 -245 -22 -127 -32 -237 -79 -309 -134 -96 -72 -208
-191 -263 -279 -95 -151 -107 -184 -123 -337 -13 -120 -8 -408 7 -450 6 -16
21 -64 33 -105 20 -66 39 -113 120 -295 10 -22 39 -85 65 -140 52 -111 58
-142 33 -158 -21 -14 -66 7 -127 60 -33 28 -47 33 -89 33 -44 0 -54 -4 -76
-31 -19 -22 -26 -42 -26 -73 0 -24 -3 -77 -6 -119 l-7 -76 -66 -3 -66 -3 -3
-90 c-2 -49 2 -153 7 -229 6 -77 10 -141 8 -142 -1 -1 -53 84 -116 189 -158
267 -170 284 -189 292 -26 10 -37 -15 -67 -152 -15 -71 -30 -134 -34 -140 -4
-9 -20 5 -46 39 -21 29 -95 120 -164 203 -689 828 -1360 1366 -1966 1575 -197
68 -341 93 -535 94 -292 2 -476 -52 -540 -157 -37 -59 -18 -221 32 -274 42
-46 350 -298 547 -449 58 -43 135 -102 171 -130 297 -226 713 -604 880 -799
222 -260 557 -742 797 -1150 389 -660 703 -1298 949 -1930 l43 -110 -42 -11
c-99 -28 -248 -60 -252 -54 -2 3 -6 32 -9 65 -17 164 -113 462 -261 810 -187
438 -523 993 -890 1470 -206 268 -492 584 -730 807 -237 222 -550 484 -655
547 -52 31 -139 29 -170 -4 -23 -24 -23 -27 -17 -173 4 -81 13 -186 21 -232 8
-47 22 -141 31 -210 9 -69 23 -172 31 -230 26 -176 108 -571 150 -715 7 -27
34 -120 59 -205 178 -622 471 -1263 810 -1775 62 -93 138 -210 169 -258 l57
-88 -10 -50 c-14 -64 -14 -537 -1 -779 9 -144 16 -204 36 -270 13 -47 31 -108
39 -136 18 -60 40 -83 86 -90 53 -8 86 20 134 111 61 118 255 447 276 470 16
17 19 17 19 3 0 -9 -7 -23 -15 -32 -8 -8 -15 -19 -15 -24 0 -6 -17 -43 -38
-84 -44 -85 -88 -198 -125 -318 -14 -47 -37 -122 -50 -167 -14 -46 -23 -92
-20 -103 3 -11 1 -20 -3 -20 -5 0 -9 -128 -9 -285 0 -157 3 -285 8 -285 4 0 7
-21 6 -47 -1 -47 16 -144 47 -268 35 -135 163 -356 338 -579 87 -111 137 -203
161 -295 14 -54 14 -77 5 -160 -10 -83 -21 -149 -35 -226 -3 -11 -11 -75 -19
-142 -21 -189 4 -350 75 -470 46 -77 242 -280 278 -288 18 -4 66 5 132 25 82
25 114 30 153 25 53 -7 95 -25 116 -50 12 -14 10 -15 -14 -5 -15 5 -55 10 -89
9 -56 0 -64 -3 -85 -30 -23 -28 -23 -35 -22 -205 0 -97 5 -195 10 -218 33
-149 125 -315 248 -447 37 -41 90 -108 117 -149 64 -97 111 -148 195 -210 236
-175 475 -185 900 -35 144 50 244 81 360 111 88 22 110 32 137 60 l33 34 112
-29 c211 -54 366 -63 606 -35 259 30 449 101 579 217 21 18 64 53 96 76 88 64
332 277 355 309 12 15 22 48 24 73 l3 44 60 16 c34 9 101 22 150 29 50 7 97
19 105 25 11 9 95 14 295 18 330 7 464 25 796 107 254 64 427 127 614 224 177
91 308 190 476 356 239 236 409 490 499 745 80 224 92 266 111 394 19 121 20
164 15 391 -3 140 -9 285 -12 321 l-7 67 37 12 c20 6 43 9 50 7 40 -15 72
-253 62 -445 -4 -68 -9 -129 -12 -137 -4 -8 9 -23 33 -38 34 -23 43 -24 97
-17 78 11 142 55 290 199 119 117 208 220 370 429 70 90 104 147 166 277 60
125 87 169 112 187 18 14 94 69 168 123 74 54 171 131 215 170 44 39 98 84
120 100 51 38 264 249 386 385 85 94 199 235 344 425 28 36 74 96 103 133 68
88 316 451 456 668 61 95 159 247 219 338 59 91 131 212 160 268 29 57 73 138
96 181 33 59 40 81 32 91 -9 10 15 36 111 118 68 58 150 125 183 150 33 25
123 114 199 198 76 84 151 159 166 169 33 20 151 147 202 217 32 43 38 60 40
108 2 51 -1 59 -27 86 -20 19 -46 33 -77 38 -51 10 -197 4 -213 -8 -5 -4 -30
-11 -55 -15 -72 -11 -344 -84 -470 -125 -100 -33 -318 -122 -445 -180 -22 -10
-101 -46 -175 -80 -441 -199 -974 -528 -1380 -850 -52 -42 -122 -96 -155 -121
-493 -373 -669 -527 -1260 -1104 -385 -375 -535 -505 -655 -565 -81 -41 -148
-63 -162 -54 -5 4 17 29 49 57 208 184 471 464 906 967 507 585 732 824 972
1034 658 575 1360 958 2075 1132 309 75 340 82 485 109 215 40 417 86 450 102
40 20 75 53 75 71 0 29 -70 129 -132 189 -67 64 -132 108 -238 163 -36 18 -92
50 -125 71 -33 20 -89 49 -125 64 l-65 28 -365 -12 c-201 -6 -419 -18 -485
-26 -66 -8 -201 -24 -300 -35 -600 -68 -784 -112 -1253 -299 -29 -12 -61 -21
-73 -21 -19 0 -19 2 -5 28 22 41 77 286 90 402 10 86 -19 212 -51 224 -8 3
-40 0 -71 -8 -143 -36 -268 -28 -380 24 -63 29 -172 122 -172 146 0 8 48 46
108 85 140 94 316 229 420 322 160 143 240 259 281 406 33 119 9 250 -79 438
-65 138 -136 237 -240 336 -123 117 -248 180 -470 234 -92 23 -126 26 -275 27
-201 0 -319 -21 -480 -85 -136 -54 -344 -177 -370 -219 -13 -21 -31 -8 -49 36
-10 25 -30 59 -44 75 -32 39 -190 133 -370 220 -78 38 -185 99 -238 134 -87
60 -100 65 -148 65 -44 0 -56 -4 -79 -28 -23 -23 -27 -37 -27 -83 0 -30 4 -69
9 -87 5 -17 7 -32 3 -32 -17 0 -144 105 -180 148 -22 26 -62 97 -89 157 -102
227 -168 314 -245 321 -23 2 -52 0 -63 -5z m87 -88 c40 -44 95 -152 112 -223
9 -36 30 -92 46 -125 47 -98 201 -245 314 -302 28 -14 81 -45 118 -69 86 -57
230 -125 242 -114 13 13 0 27 -100 101 -52 38 -94 71 -94 74 0 2 -14 59 -31
125 -17 67 -28 124 -25 127 3 4 26 -8 50 -25 102 -73 157 -106 266 -159 63
-30 175 -89 248 -131 l133 -76 83 -135 c87 -142 112 -165 136 -121 9 18 6 30
-20 76 -25 44 -29 59 -19 70 20 24 199 133 294 178 377 181 770 179 1076 -5
180 -108 285 -236 397 -486 58 -128 72 -211 53 -323 -18 -107 -58 -174 -168
-281 -155 -151 -441 -367 -693 -525 -147 -92 -164 -108 -150 -134 16 -31 49
-24 129 25 79 49 79 49 111 -7 16 -27 131 -109 195 -139 88 -41 159 -50 285
-33 67 9 108 10 114 4 12 -12 -25 -228 -62 -365 -15 -55 -49 -142 -75 -192
l-47 -93 -73 -36 c-404 -204 -745 -428 -1136 -747 l-120 -98 -68 39 c-305 177
-532 229 -805 181 -50 -9 -67 -6 -160 21 -56 16 -206 48 -333 70 -411 73 -692
150 -1055 292 -325 127 -324 127 -345 184 -9 27 -23 64 -31 82 -25 59 -20 72
29 72 104 0 238 64 332 157 62 62 66 65 83 49 15 -13 41 -16 133 -16 132 1
276 13 336 29 95 26 147 108 147 236 0 98 -27 221 -65 297 -16 32 -29 60 -29
63 0 10 139 -65 147 -80 8 -13 263 -144 453 -232 193 -89 395 -157 448 -151
21 2 -14 23 -160 95 -103 50 -196 94 -207 98 -35 11 -23 25 22 25 54 0 210
-36 411 -94 179 -52 236 -64 236 -48 0 10 -113 67 -223 112 -32 14 -54 26 -48
28 5 2 106 -1 223 -6 209 -10 278 -8 278 8 0 10 -109 36 -190 46 -85 10 -92
20 -24 34 32 7 82 21 109 31 28 10 60 19 73 19 12 0 44 15 71 33 27 17 99 59
160 92 61 33 111 63 111 68 0 10 -59 9 -99 -3 -19 -5 -37 -8 -39 -6 -2 3 9 24
25 48 54 80 111 183 123 222 19 58 7 156 -26 224 -38 79 -149 188 -239 234
-172 88 -356 128 -591 128 -102 0 -153 -4 -172 -14 -15 -7 -47 -16 -72 -20
-105 -16 -311 -105 -435 -189 -33 -22 -103 -77 -155 -122 -145 -124 -189 -158
-270 -214 -117 -81 -256 -115 -299 -72 -50 50 -47 202 6 308 21 43 24 55 13
68 -36 44 -81 -5 -110 -121 -24 -91 -25 -128 -6 -209 8 -33 13 -61 12 -63 -2
-1 -69 -8 -150 -14 -125 -9 -167 -8 -279 6 -153 20 -373 59 -383 69 -4 4 12
27 35 53 64 68 84 123 79 204 -4 48 -13 82 -33 118 -28 52 -45 65 -69 56 -27
-10 -26 -35 1 -82 22 -37 28 -59 28 -108 0 -53 -4 -69 -30 -105 -35 -49 -121
-119 -147 -119 -20 0 -55 46 -210 273 -138 203 -247 339 -306 379 -65 45 -118
62 -298 99 -135 28 -180 33 -304 33 -115 0 -154 -3 -190 -17 -73 -29 -117 -65
-145 -120 -22 -44 -25 -64 -25 -152 0 -152 38 -272 121 -382 22 -29 36 -53 32
-53 -4 0 -28 12 -53 26 -151 87 -265 144 -279 141 -21 -5 49 -74 143 -141 57
-40 277 -161 327 -178 8 -3 11 -8 8 -11 -3 -4 -60 1 -127 10 -115 16 -155 14
-122 -8 35 -22 210 -71 337 -94 231 -42 313 -59 313 -66 0 -6 -49 -13 -183
-25 -62 -5 -75 -9 -66 -20 37 -45 265 -43 453 5 66 17 121 29 123 27 2 -2 -1
-15 -7 -30 -16 -44 -12 -97 14 -151 39 -84 178 -197 297 -241 54 -20 79 -14
79 19 0 20 -11 29 -60 51 -120 51 -225 138 -254 208 -22 52 -21 145 3 184 15
25 29 33 77 43 65 15 208 65 295 104 32 14 61 21 65 17 15 -14 183 -48 369
-75 225 -34 349 -31 467 9 l78 26 32 -20 c79 -48 227 -14 374 85 52 35 94 63
94 62 0 -1 -11 -29 -25 -62 -15 -37 -25 -80 -25 -112 l0 -53 78 -60 c42 -33
90 -70 106 -82 16 -12 24 -24 17 -26 -12 -4 -210 98 -306 159 -69 43 -77 45
-95 24 -20 -24 -3 -48 63 -90 62 -39 64 -41 76 -100 6 -33 19 -89 27 -125 8
-36 17 -110 20 -165 5 -91 4 -104 -18 -145 -18 -36 -31 -48 -63 -58 -51 -17
-290 -32 -375 -23 l-65 6 66 48 c46 32 76 47 99 47 44 0 37 30 -12 48 -34 13
-41 12 -90 -10 -55 -25 -71 -40 -197 -171 -56 -60 -90 -86 -147 -113 -132 -63
-266 -56 -365 19 -57 44 -89 105 -128 241 -43 146 -73 207 -140 277 -66 69
-115 94 -151 76 -58 -30 -50 -82 13 -82 27 0 44 -8 71 -34 63 -61 87 -107 130
-248 44 -144 62 -187 102 -240 33 -43 103 -90 166 -112 29 -10 53 -22 55 -27
6 -17 -58 -103 -131 -179 -66 -67 -77 -75 -151 -98 -120 -37 -266 -57 -500
-67 -231 -10 -758 -13 -791 -4 -11 3 -29 22 -40 41 -26 50 -131 134 -223 180
-68 34 -84 38 -151 38 -61 0 -84 -5 -125 -27 -44 -23 -142 -116 -215 -204 -23
-28 -32 -31 -104 -37 -43 -4 -146 -21 -228 -38 -83 -17 -154 -27 -158 -22 -4
4 -49 89 -100 188 -51 99 -103 199 -117 223 -14 23 -22 42 -19 42 4 0 33 -11
66 -25 69 -29 102 -31 124 -9 24 24 19 65 -20 161 -125 303 -157 421 -158 588
-1 66 2 129 7 139 7 18 9 18 32 -4 14 -13 36 -47 49 -75 26 -53 124 -155 150
-155 29 0 26 19 -15 85 l-40 67 11 191 c6 105 12 192 13 194 2 1 43 -25 92
-57 50 -33 105 -62 123 -66 102 -20 145 145 78 303 -14 34 -57 114 -95 178
-86 144 -128 244 -152 360 -32 157 -41 258 -29 327 6 35 17 106 25 158 36 235
220 464 466 579 273 128 547 94 849 -105 69 -45 132 -122 171 -209 21 -46 55
-44 120 6 64 50 210 181 328 294 l83 80 -6 -40 c-3 -22 -9 -89 -12 -150 -6
-99 -5 -112 13 -133 17 -22 22 -23 58 -13 22 5 105 20 185 31 245 36 458 118
692 269 54 34 102 60 107 57 19 -12 -49 -225 -112 -352 l-41 -84 21 -22 c22
-22 22 -22 44 -2 12 10 36 49 53 85 19 37 37 64 44 61 22 -7 136 54 197 105
68 58 173 178 241 276 26 37 50 67 54 67 14 0 38 -45 64 -121 26 -75 76 -335
76 -397 0 -49 22 -35 38 24 7 27 13 80 13 118 1 66 3 73 43 125 23 31 69 99
101 151 66 106 111 160 135 160 9 0 28 -12 42 -27z m-7274 -694 c297 -32 484
-106 809 -321 241 -159 445 -315 628 -481 415 -375 761 -755 994 -1092 265
-384 426 -649 584 -964 154 -304 201 -415 318 -750 37 -109 90 -313 120 -466
19 -97 24 -153 24 -290 0 -156 -2 -178 -28 -271 -15 -55 -29 -113 -30 -129
l-2 -29 -185 -27 c-102 -14 -241 -36 -309 -48 -67 -12 -125 -21 -127 -18 -2 2
-37 86 -78 188 -183 455 -251 607 -451 1004 -505 1001 -991 1739 -1470 2234
-200 206 -556 507 -1014 857 -237 181 -421 345 -441 395 -29 70 50 142 195
179 149 38 301 47 463 29z m-114 -1433 c129 -97 352 -287 502 -428 422 -398
777 -823 1089 -1303 43 -66 92 -142 110 -170 115 -176 349 -614 420 -785 156
-378 218 -558 265 -771 11 -51 20 -96 20 -100 0 -12 -53 -20 -63 -10 -20 20
-45 11 -85 -33 -83 -90 -284 -378 -428 -613 -108 -177 -94 -159 -113 -136
-528 663 -861 1152 -1114 1633 -27 52 -55 104 -62 115 -56 92 -211 463 -286
690 -194 583 -435 1754 -404 1962 6 43 6 43 33 29 15 -8 67 -44 116 -80z
m2832 -359 c131 -262 212 -404 233 -410 11 -2 24 -21 31 -43 7 -22 28 -74 47
-118 18 -43 32 -82 31 -86 -2 -5 -47 13 -100 38 l-98 47 -151 232 -150 232 16
88 c10 48 18 97 19 108 4 46 19 94 27 89 5 -3 48 -83 95 -177z m10165 -406
c101 -35 364 -169 429 -219 67 -51 140 -124 159 -160 16 -30 -4 -38 -151 -62
-747 -123 -1146 -232 -1602 -442 -426 -195 -868 -485 -1259 -826 -180 -157
-278 -253 -496 -487 -219 -235 -234 -252 -556 -625 -599 -692 -877 -966 -1198
-1181 -239 -160 -502 -278 -691 -310 -145 -24 -286 2 -346 66 -33 36 -42 153
-24 315 27 228 84 499 125 587 16 34 29 66 29 71 0 13 187 313 260 417 163
233 422 553 629 777 497 539 999 976 1449 1261 282 179 653 368 808 411 133
38 284 95 310 118 24 21 125 57 279 98 425 113 920 174 1660 203 39 2 84 4
101 5 17 1 55 -6 85 -17z m-6863 -499 c2 -6 -29 -46 -69 -89 -65 -70 -85 -84
-188 -135 -215 -107 -191 -103 -611 -100 -201 1 -432 7 -515 14 -82 6 -167 11
-188 12 -20 1 -38 6 -40 11 -1 6 156 12 447 17 246 3 501 11 566 18 148 14
312 51 383 85 57 28 129 92 169 151 23 33 38 39 46 16z m-1883 -41 c37 -18 95
-60 131 -93 82 -77 82 -88 9 -253 -30 -69 -55 -131 -55 -138 0 -8 -9 -22 -20
-32 -12 -11 -19 -29 -18 -49 0 -17 -16 -107 -36 -201 -19 -93 -42 -225 -50
-292 -8 -67 -17 -127 -21 -132 -8 -14 -25 -14 -25 -1 0 6 -21 47 -46 91 -48
83 -81 115 -112 107 -22 -6 -34 10 -74 106 -69 167 -133 389 -158 551 -5 39
-12 80 -15 93 -4 18 2 27 30 43 19 12 35 26 35 33 0 12 104 108 172 160 74 56
149 58 253 7z m1973 -81 c26 -12 142 -59 257 -104 467 -186 773 -264 1443
-372 17 -3 32 -7 32 -9 0 -3 -17 -23 -39 -45 l-38 -40 -57 19 c-30 11 -129 34
-218 51 -446 85 -772 177 -1178 330 -213 80 -310 124 -310 140 0 5 10 25 22
45 17 30 23 34 30 21 5 -8 30 -25 56 -36z m-2540 -177 c-3 -26 -11 -31 -143
-75 -77 -26 -148 -47 -157 -47 -18 -1 -54 66 -43 78 7 7 289 68 323 70 20 1
23 -3 20 -26z m9941 -102 c8 -5 11 -16 6 -30 -3 -12 -114 -132 -246 -267 -131
-135 -239 -250 -239 -255 0 -4 -26 -26 -57 -47 -32 -22 -103 -79 -158 -127
-294 -257 -436 -406 -779 -820 -826 -994 -1028 -1206 -1411 -1478 -296 -211
-999 -573 -1218 -628 -61 -15 -79 -44 -52 -85 15 -23 22 -26 53 -20 82 13 284
98 563 238 544 271 821 458 1150 776 117 113 371 388 500 543 34 41 110 130
168 198 58 69 126 151 151 182 25 31 90 110 145 175 54 66 124 148 153 184
106 127 344 389 359 395 10 3 5 -9 -12 -31 -68 -89 -208 -298 -391 -582 -349
-541 -615 -915 -850 -1197 -133 -158 -392 -425 -534 -550 -265 -231 -584 -440
-878 -574 -195 -88 -570 -200 -809 -241 -111 -19 -112 -19 -156 0 -50 22 -212
62 -332 81 -47 8 -161 13 -275 13 -169 0 -206 -3 -274 -22 -134 -37 -205 -88
-256 -184 -34 -65 -146 -235 -271 -413 -110 -157 -189 -317 -265 -535 -24 -69
-46 -124 -49 -122 -3 1 -29 18 -58 36 -129 83 -220 85 -394 11 -214 -91 -509
-271 -648 -396 -74 -66 -194 -129 -430 -226 -299 -124 -671 -218 -940 -238
-44 -4 -91 -11 -105 -16 -20 -7 -37 -5 -72 10 -86 39 -360 85 -605 102 -242
18 -605 -13 -848 -71 l-88 -20 -51 25 c-71 34 -127 40 -210 21 -139 -33 -297
-148 -313 -228 -5 -27 -9 -29 -38 -24 -37 7 -111 -6 -204 -36 l-63 -20 -65 63
c-85 84 -148 173 -185 260 -50 120 -49 219 7 554 51 307 24 421 -158 657 -198
258 -296 434 -342 616 -34 135 -44 254 -45 492 0 394 31 520 220 905 115 234
234 430 428 707 147 211 142 207 253 234 115 28 441 95 604 124 136 24 495 78
495 75 0 -2 -25 -61 -56 -131 -31 -71 -67 -160 -80 -198 -30 -87 -49 -226 -40
-289 8 -50 32 -80 127 -158 43 -36 43 -36 26 -62 -9 -14 -54 -57 -99 -95 -148
-125 -184 -172 -233 -307 -27 -73 -37 -88 -122 -172 -102 -102 -134 -122 -238
-147 -64 -16 -115 -46 -115 -68 0 -5 28 -6 63 -3 147 15 175 23 234 63 82 56
194 177 220 237 12 28 33 76 47 108 l26 58 40 -32 c23 -18 75 -73 117 -122 42
-49 93 -100 114 -114 22 -14 39 -27 39 -29 0 -2 -40 -31 -90 -64 -49 -33 -110
-81 -135 -108 -56 -58 -121 -183 -169 -323 -36 -105 -44 -153 -28 -163 5 -3
51 77 102 177 51 100 109 203 128 229 35 47 205 174 294 220 47 25 90 27 114
7 17 -14 114 -160 168 -253 28 -47 28 -51 22 -150 -4 -55 -14 -141 -22 -191
-18 -119 -19 -181 -1 -166 8 6 22 39 32 73 9 35 26 92 36 128 23 83 42 225 35
264 -7 34 -111 214 -176 300 -49 67 -69 81 -139 95 -46 10 -57 9 -72 -4 -16
-15 -21 -14 -67 9 -31 16 -69 48 -98 83 -27 32 -82 91 -122 131 -62 61 -72 76
-61 86 8 7 56 48 108 91 105 89 131 123 131 179 0 40 -15 58 -124 152 -35 30
-36 33 -36 101 0 111 39 236 150 478 15 33 30 67 33 76 6 19 50 24 347 40 224
13 712 6 900 -11 460 -43 710 -125 1330 -438 223 -113 425 -210 450 -217 30
-7 60 -8 90 -2 39 8 58 23 155 121 112 115 227 201 284 212 29 6 31 5 31 -22
0 -16 -21 -101 -46 -189 -58 -200 -63 -288 -22 -376 14 -30 39 -69 56 -85 l30
-29 -20 -110 c-13 -74 -21 -158 -22 -255 -1 -140 0 -147 27 -198 31 -60 83
-101 166 -133 75 -29 240 -32 356 -5 226 51 498 188 805 404 l45 31 58 -20
c56 -19 61 -19 125 -3 95 23 215 90 331 183 55 45 282 258 505 475 504 490
738 699 1025 916 103 78 204 156 346 267 279 219 595 432 900 605 361 205 897
447 1165 526 383 112 575 151 619 123z m-7094 -141 c25 -28 14 -44 -49 -74
-83 -39 -163 -54 -356 -66 -96 -6 -182 -11 -190 -12 -29 -2 -50 2 -50 11 0 9
90 29 272 61 115 20 182 39 283 79 63 25 68 25 90 1z m405 -48 c0 -32 -74
-144 -131 -196 -31 -29 -81 -64 -112 -79 -30 -14 -62 -36 -71 -49 -15 -20 -23
-23 -77 -20 -79 5 -109 -13 -109 -66 0 -31 -6 -40 -35 -60 l-35 -22 0 22 c0
13 -3 46 -6 75 l-7 52 50 -1 c67 -2 111 26 148 93 18 33 30 47 35 39 14 -23
139 60 284 187 53 47 66 52 66 25z m-1820 -23 c156 -17 399 -66 668 -134 140
-36 265 -65 279 -65 22 0 24 3 19 25 -6 25 -6 25 62 25 38 0 91 3 117 7 l47 6
-6 -59 c-3 -32 -11 -178 -17 -324 -6 -155 -16 -296 -25 -339 -18 -88 -69 -194
-114 -236 -30 -28 -32 -29 -45 -12 -30 42 -44 211 -25 316 5 31 17 101 25 156
9 55 20 114 25 130 57 180 87 301 78 318 -15 29 -51 17 -70 -24 -18 -38 -89
-297 -108 -392 -8 -42 -16 -57 -25 -53 -81 31 -437 78 -562 74 -91 -3 -98 -5
-101 -24 -2 -11 3 -26 10 -32 8 -6 131 -14 331 -20 175 -6 321 -12 324 -15 2
-3 2 -40 -2 -82 -7 -75 -8 -76 -43 -91 -30 -12 -37 -12 -51 0 -48 42 -117 25
-277 -68 -52 -31 -97 -56 -98 -56 -2 0 1 23 6 51 7 41 6 57 -9 87 -30 61 -60
57 -214 -28 -72 -40 -133 -70 -135 -67 -3 3 0 23 7 45 14 47 6 88 -20 101 -14
8 -36 2 -97 -28 -104 -50 -153 -65 -307 -96 -119 -24 -167 -26 -167 -6 0 5 15
41 34 82 18 41 44 104 57 142 22 62 23 69 9 95 -11 19 -25 28 -46 30 -26 3
-44 -9 -125 -82 -51 -48 -99 -86 -106 -86 -14 0 -19 17 -28 95 -12 111 -32
145 -84 145 -23 0 -24 6 -11 70 6 25 17 86 25 135 22 125 55 257 70 273 27 30
486 36 725 11z m3363 -25 c39 -9 106 -30 147 -45 87 -34 272 -130 277 -145 2
-5 -58 -65 -132 -133 -204 -186 -638 -639 -732 -763 -15 -21 -30 -37 -33 -38
-9 0 -101 147 -109 177 -14 50 -23 431 -12 538 24 229 50 315 113 363 90 69
294 88 481 46z m-1983 -137 c-19 -51 -26 -58 -76 -83 -32 -15 -59 -23 -63 -18
-10 11 -31 116 -24 126 2 5 12 8 22 8 9 0 48 11 87 24 81 27 84 24 54 -57z
m143 -257 c5 -4 -5 -29 -21 -55 l-29 -47 -27 45 c-39 68 -36 80 22 71 26 -3
51 -10 55 -14z m-2955 -127 c37 -32 107 -97 158 -145 50 -49 99 -88 108 -88
29 0 47 45 53 134 5 79 8 86 27 86 26 0 86 -103 86 -147 0 -41 19 -62 60 -65
31 -3 35 0 38 24 3 21 9 27 30 30 25 3 27 7 30 53 5 79 42 102 42 27 1 -59 19
-125 42 -149 43 -46 109 -23 207 70 38 37 42 39 36 17 -4 -14 -15 -41 -25 -60
-9 -19 -25 -58 -34 -87 -11 -32 -27 -58 -43 -68 -21 -14 -24 -22 -19 -47 4
-20 0 -40 -11 -59 -13 -22 -14 -32 -6 -40 9 -9 20 -4 43 20 30 29 38 32 113
36 108 5 308 48 399 85 40 17 76 30 80 30 4 0 -15 -42 -42 -93 -28 -52 -50
-101 -50 -110 0 -28 26 -19 64 23 24 27 44 40 62 40 25 0 170 68 271 128 29
17 54 28 57 24 2 -4 -4 -73 -15 -152 -13 -94 -17 -151 -11 -164 8 -20 10 -19
25 9 8 17 22 57 30 89 19 69 20 71 46 56 19 -9 37 -2 133 56 77 46 126 68 155
72 l43 5 0 -79 1 -79 24 30 c14 17 25 35 25 42 0 12 61 75 67 69 2 -2 8 -39
13 -84 19 -147 58 -202 132 -188 67 12 160 141 193 265 16 57 25 74 32 54 11
-30 45 -60 81 -71 57 -17 123 6 238 84 53 36 97 64 99 62 8 -9 -16 -110 -39
-162 -29 -66 -31 -76 -13 -76 6 0 25 20 40 45 16 25 32 45 36 45 21 0 63 -64
89 -136 29 -79 29 -81 12 -115 -21 -40 -11 -69 24 -69 17 0 33 16 64 65 39 61
43 65 79 65 33 0 42 -6 66 -39 15 -22 27 -47 27 -56 0 -17 66 -85 83 -85 5 0
7 17 5 38 -3 24 5 67 25 125 23 71 34 90 57 102 35 18 39 14 111 -115 57 -103
78 -132 89 -125 4 2 10 33 13 69 3 35 17 91 30 123 13 32 36 91 52 130 15 40
37 80 47 90 18 16 22 16 46 2 24 -13 232 -311 232 -332 0 -15 -204 -269 -219
-274 -9 -2 -61 -24 -116 -48 -93 -40 -222 -85 -244 -85 -5 0 -23 22 -40 48
-57 89 -177 130 -271 92 -19 -7 -96 -53 -170 -101 -227 -146 -293 -173 -390
-158 -27 4 -127 47 -245 107 -229 114 -358 171 -535 237 -69 26 -130 51 -136
56 -6 5 -35 13 -65 20 -30 6 -97 24 -149 39 -206 63 -458 110 -705 131 -251
22 -678 -6 -898 -58 -37 -8 -70 -13 -73 -10 -3 3 -1 39 5 80 15 104 -15 364
-63 555 -13 50 -21 92 -19 92 3 0 35 -26 71 -57z m2810 36 c2 -9 -16 -24 -45
-39 -82 -42 -83 -42 -83 -17 0 16 6 23 21 24 11 1 35 13 52 27 34 27 50 28 55
5z m-69 -139 c38 15 71 -4 71 -41 0 -31 32 -67 68 -75 30 -8 52 -22 52 -35 0
-18 -105 -69 -142 -69 -31 0 -40 5 -52 29 -9 16 -27 42 -41 59 -23 27 -25 36
-19 86 6 46 9 54 20 45 11 -9 21 -8 43 1z m-1690 -611 c256 -27 523 -88 806
-183 230 -78 389 -145 647 -273 125 -62 251 -118 280 -124 129 -28 263 23 494
187 71 50 139 83 172 84 46 0 94 -32 128 -86 35 -55 59 -74 91 -74 24 0 196
52 256 79 4 1 -28 -51 -72 -117 -89 -133 -159 -248 -202 -334 -16 -32 -33 -58
-38 -58 -13 0 -19 -21 -47 -155 -31 -152 -33 -155 -45 -133 -5 9 -13 39 -19
66 -9 51 0 98 69 342 49 175 5 273 -115 255 -81 -12 -324 -182 -381 -267 -16
-23 -40 -50 -55 -61 -25 -19 -31 -19 -70 -8 -24 8 -214 100 -423 206 -397 202
-495 245 -735 325 -277 91 -540 129 -1030 145 -174 6 -588 -8 -750 -24 -47 -5
-86 -8 -88 -6 -2 1 6 18 18 36 11 19 25 50 30 70 10 35 11 36 82 48 40 7 119
21 175 32 96 18 230 34 353 43 83 6 360 -3 469 -15z m-3427 -849 c64 -85 157
-207 206 -270 l90 -115 -33 -45 c-18 -25 -79 -119 -135 -210 l-102 -165 7 60
c4 33 10 90 14 127 4 37 9 69 11 71 3 3 30 16 60 30 67 32 115 78 106 103 -5
14 -15 16 -59 10 -28 -3 -63 -8 -77 -11 -23 -5 -27 -1 -49 56 -22 59 -23 67
-12 152 7 49 9 92 5 96 -10 10 -72 -68 -100 -125 -29 -59 -27 -94 7 -150 25
-42 25 -129 -2 -297 -11 -73 -23 -139 -26 -147 -19 -55 -44 222 -42 455 1 77
-4 212 -10 300 -10 131 -10 205 -1 255 1 6 -2 9 142 -180z m9014 -1714 c-71
-126 -361 -506 -387 -506 -5 0 -9 7 -9 16 0 39 -34 87 -76 106 -89 39 -154 40
-154 1 0 -22 60 -81 89 -88 43 -9 58 -51 40 -117 -12 -46 -24 -61 -102 -130
-49 -43 -101 -86 -115 -97 l-27 -19 -1 192 c0 161 -4 206 -23 286 -26 110 -25
110 62 131 181 43 497 166 662 259 38 21 71 37 73 35 3 -2 -12 -33 -32 -69z
m-1621 -227 c137 -15 186 -30 196 -56 10 -28 36 -39 110 -48 53 -7 218 8 255
22 16 6 17 -9 10 -218 -4 -123 -11 -228 -16 -232 -4 -5 -64 -15 -131 -22 -68
-7 -225 -27 -349 -44 -627 -86 -855 -152 -1003 -290 -45 -42 -144 -175 -253
-340 -42 -64 -49 -71 -57 -53 -11 24 21 163 64 277 81 211 151 336 338 595 45
63 107 160 137 215 59 107 90 137 174 168 124 44 295 53 525 26z m567 -641
c12 -33 -35 -274 -77 -403 -108 -327 -259 -580 -492 -825 -284 -299 -612 -474
-1130 -604 -330 -82 -516 -106 -839 -106 -188 0 -233 -3 -237 -14 -3 -8 -29
-16 -64 -20 -183 -22 -383 -88 -444 -146 -67 -63 -30 -92 75 -59 33 10 62 19
64 19 33 2 -257 -250 -463 -401 -133 -98 -287 -153 -513 -184 -194 -26 -321
-19 -522 31 -101 25 -286 89 -303 104 -4 4 1 22 12 41 37 64 49 149 20 149 -4
0 -34 -36 -65 -80 -42 -58 -62 -79 -73 -74 -9 3 -53 19 -97 35 -45 16 -126 47
-180 69 -54 22 -102 40 -107 40 -4 0 -7 -24 -5 -52 3 -52 4 -53 51 -75 26 -13
47 -25 47 -28 0 -10 -53 -54 -95 -79 -42 -25 -185 -60 -196 -48 -3 4 -28 39
-55 77 -75 107 -111 143 -156 156 -58 15 -72 -2 -30 -39 29 -24 72 -82 148
-197 59 -90 93 -114 187 -134 39 -8 61 -19 68 -33 6 -11 8 -22 5 -25 -13 -14
-207 -64 -286 -75 -197 -26 -341 37 -593 257 -48 42 -87 80 -87 85 0 5 24 31
52 59 49 46 57 51 101 51 57 0 119 29 144 67 36 55 295 154 450 173 102 13
172 7 438 -35 83 -13 182 -27 220 -30 122 -11 361 23 438 62 16 8 34 12 40 10
7 -2 -1 -10 -18 -17 -125 -51 -144 -72 -70 -78 74 -6 409 44 590 89 287 71
717 276 947 451 85 65 139 97 638 383 244 139 423 266 531 375 69 70 134 173
151 241 6 21 14 39 19 39 5 0 21 24 35 53 32 62 190 297 255 377 127 154 323
214 1026 310 166 23 323 47 350 54 64 18 90 19 95 4z m-3348 -1208 c-40 -60
-113 -98 -351 -180 -80 -28 -82 -28 -99 -9 -24 26 -32 24 -71 -17 -37 -39 -92
-58 -279 -93 l-91 -17 -44 38 c-51 44 -46 52 38 62 228 27 611 132 838 229 44
19 81 33 83 32 2 -2 -9 -22 -24 -45z m-1689 -145 c143 -17 274 -38 377 -61 84
-19 81 -35 -12 -65 l-69 -22 -93 23 c-126 32 -193 30 -291 -9 -94 -38 -226
-55 -311 -41 -32 5 -60 11 -62 13 -2 2 1 18 7 34 6 17 9 48 7 69 -5 59 -28 55
-78 -13 -55 -74 -76 -91 -125 -98 -71 -11 -342 62 -338 90 2 15 55 31 166 49
269 46 590 58 822 31z m-1120 -76 c33 -37 35 -42 35 -114 0 -102 -56 -307
-113 -412 -10 -18 -19 -33 -21 -33 -9 0 -113 145 -154 215 -53 90 -139 182
-196 209 l-38 18 23 23 c37 36 225 125 293 139 81 17 125 5 171 -45z m1710
-63 c45 -19 183 -156 227 -226 37 -58 88 -198 88 -241 0 -53 -53 -113 -179
-203 -67 -47 -126 -86 -130 -86 -14 0 -40 74 -72 204 -24 98 -29 141 -28 231
1 164 13 279 33 309 19 30 17 30 61 12z m1181 -185 c16 -8 84 -69 84 -75 0 -5
-92 -59 -280 -166 -80 -46 -172 -98 -205 -117 -33 -20 -100 -51 -149 -70 -87
-34 -325 -103 -354 -103 -9 0 10 26 42 60 71 74 99 134 94 201 l-3 50 71 29
c40 16 99 34 133 41 61 12 62 12 131 -25 102 -53 140 -45 105 24 -9 18 -15 33
-13 35 10 9 145 73 213 101 74 31 98 34 131 15z m-3371 -127 c40 -16 112 -64
169 -111 20 -16 46 -54 62 -88 15 -35 45 -77 71 -103 l46 -42 -5 -73 c-3 -44
-13 -88 -25 -112 -34 -68 -113 -204 -122 -209 -5 -3 -40 31 -79 76 -78 88
-150 220 -177 323 -17 62 -32 311 -22 339 8 20 34 20 82 0z m1599 -170 c62 -7
67 -10 135 -94 19 -24 20 -24 38 -7 12 12 18 32 18 62 0 53 4 55 126 55 l86 0
21 -97 c11 -54 24 -108 28 -120 5 -19 2 -23 -16 -23 -12 0 -58 -10 -103 -22
-120 -32 -351 -32 -537 0 -238 42 -361 51 -470 35 -52 -8 -135 -28 -185 -44
-100 -34 -270 -111 -297 -136 -10 -9 -20 -14 -22 -12 -3 3 9 65 30 146 4 16
253 140 379 188 125 48 166 49 229 6 60 -42 81 -38 81 14 0 46 -12 42 155 54
111 9 178 7 304 -5z m-70 -689 c99 -36 185 -70 189 -74 5 -5 -6 -12 -25 -16
-52 -11 -307 -82 -370 -104 l-57 -19 -26 34 c-14 19 -40 41 -58 50 l-31 17 49
22 c55 24 121 90 131 130 3 14 8 25 11 25 3 0 87 -29 187 -65z"/>
<path d="M5123 12900 c-265 -70 -502 -229 -586 -395 -56 -112 -38 -281 65
-620 79 -262 109 -322 146 -298 24 15 20 38 -43 222 -91 267 -119 387 -120
516 0 98 3 115 25 158 31 62 148 173 237 226 86 51 257 116 347 132 126 21
249 -2 401 -78 39 -19 87 -48 108 -65 46 -36 58 -30 32 18 -39 73 -192 163
-325 193 -71 16 -207 12 -287 -9z"/>
<path d="M5515 12623 c-117 -14 -193 -26 -210 -35 -69 -36 -85 -92 -38 -140
14 -15 24 -30 22 -32 -3 -3 -61 -17 -129 -32 -204 -43 -254 -68 -230 -114 11
-20 30 -25 125 -35 33 -3 75 -9 93 -12 l33 -5 -94 -97 c-99 -101 -223 -247
-276 -325 -36 -53 -38 -89 -4 -94 17 -2 33 13 75 70 74 99 230 278 317 362 95
92 94 129 -8 156 -23 6 -41 13 -39 16 7 6 200 46 236 48 18 1 36 7 40 12 4 6
21 17 37 25 47 22 39 45 -15 41 -38 -3 -51 2 -87 30 -45 34 -53 52 -27 62 8 3
73 13 142 22 296 36 403 86 179 83 -62 -1 -125 -4 -142 -6z"/>
<path d="M10601 12539 c-160 -27 -418 -147 -514 -240 -51 -50 -57 -59 -48 -77
6 -11 25 -23 43 -27 18 -4 68 -25 111 -47 106 -55 187 -138 238 -244 22 -45
47 -85 55 -88 26 -10 50 11 63 55 31 102 29 102 66 -6 18 -55 41 -117 49 -138
16 -36 17 -37 39 -22 12 8 35 30 50 50 15 19 33 35 39 35 18 0 1 -200 -27
-319 -13 -58 -21 -109 -18 -114 15 -24 170 19 297 84 318 162 454 391 390 659
-39 168 -193 333 -373 401 -121 45 -317 62 -460 38z m364 -84 c199 -52 362
-207 401 -381 50 -229 -76 -429 -363 -573 -72 -36 -160 -70 -166 -65 -2 3 2
28 10 57 8 28 17 116 20 194 5 123 4 145 -11 167 -26 40 -75 36 -116 -10 -17
-20 -32 -35 -33 -33 -2 2 -15 45 -31 94 -16 50 -38 107 -49 127 -38 69 -85 59
-112 -22 -18 -55 -27 -61 -42 -27 -37 79 -165 195 -270 244 -29 14 -53 28 -53
33 0 12 123 83 214 125 78 36 187 71 263 85 69 13 267 4 338 -15z"/>
<path d="M3833 9945 c2 -16 26 -88 52 -160 73 -202 211 -634 245 -763 63 -249
142 -614 171 -796 17 -107 52 -143 94 -95 19 20 18 24 -14 200 -96 528 -234
1034 -356 1310 -60 136 -141 282 -173 311 l-25 23 6 -30z"/>
<path d="M1207 10907 c-23 -60 94 -603 204 -952 156 -492 429 -1088 748 -1634
166 -284 509 -826 640 -1011 53 -75 68 -90 90 -90 31 0 51 16 51 42 0 10 -27
55 -59 100 -103 144 -463 710 -613 963 -170 288 -390 717 -518 1010 -90 207
-174 431 -263 700 -114 345 -236 750 -252 839 -8 39 -20 54 -28 33z"/>
<path d="M9334 8061 c-230 -170 -548 -713 -786 -1341 -34 -90 -35 -114 -6
-134 31 -22 57 -3 82 60 139 353 272 642 384 837 79 137 279 443 343 524 27
35 49 67 49 73 0 18 -26 11 -66 -19z"/>
<path d="M5895 6663 c-100 -42 -245 -154 -382 -296 -111 -115 -167 -198 -195
-290 -32 -108 -22 -171 76 -452 25 -71 55 -177 66 -234 24 -119 25 -121 49
-121 31 0 44 25 36 72 -11 75 -64 264 -101 365 -53 143 -64 190 -63 268 0 83
12 121 64 200 49 75 226 254 325 328 149 111 212 125 391 87 147 -31 198 -24
143 19 -74 58 -322 91 -409 54z"/>
<path d="M6008 6461 c-88 -29 -239 -136 -415 -297 -48 -43 -83 -83 -83 -94 0
-10 -4 -21 -9 -24 -5 -4 -12 -23 -16 -44 -6 -39 11 -114 80 -347 51 -170 68
-295 61 -435 -5 -119 -8 -129 -74 -340 -49 -155 -72 -285 -72 -409 0 -155 27
-228 117 -322 123 -129 277 -141 488 -40 174 84 393 272 494 426 92 140 243
464 321 691 101 292 107 517 19 684 -76 143 -384 428 -553 510 -125 61 -251
75 -358 41z m302 -124 c41 -20 85 -45 97 -54 22 -17 19 -18 -110 -18 -129 0
-134 -1 -199 -33 -85 -41 -159 -121 -207 -222 -34 -72 -36 -79 -35 -180 0 -94
5 -119 43 -240 56 -181 61 -240 28 -356 -59 -205 -82 -395 -74 -607 7 -200 38
-299 121 -394 22 -25 35 -48 30 -52 -20 -18 -111 -41 -164 -41 -40 0 -71 7
-108 26 -61 30 -96 69 -131 144 -23 49 -26 67 -25 165 1 132 24 245 89 444 92
280 85 476 -31 851 -19 63 -42 132 -50 153 -13 35 -13 41 10 86 38 74 272 273
403 342 55 29 63 31 148 27 79 -3 99 -8 165 -41z"/>
<path d="M7970 6415 c-15 -18 -9 -97 20 -282 35 -220 90 -306 235 -374 66 -32
155 -49 155 -31 0 6 -28 27 -61 47 -104 61 -173 119 -201 172 -30 54 -61 196
-78 353 -6 58 -16 110 -22 117 -14 17 -33 16 -48 -2z"/>
<path d="M6880 6260 c0 -14 35 -83 127 -253 91 -167 113 -232 113 -335 0 -104
-56 -428 -100 -581 -11 -40 2 -71 30 -71 11 0 24 8 29 18 22 42 103 450 116
589 16 161 -77 380 -247 585 -46 55 -68 70 -68 48z"/>
<path d="M3218 6030 c-114 -20 -222 -73 -279 -136 -108 -118 -160 -330 -138
-560 27 -294 96 -470 297 -764 157 -228 179 -265 206 -332 14 -36 32 -95 39
-130 12 -55 12 -68 -1 -95 -14 -30 -13 -33 59 -158 41 -70 88 -144 105 -164
76 -88 200 -121 383 -102 236 25 359 95 392 224 17 69 6 127 -46 252 -87 206
-98 299 -81 705 8 199 7 225 -13 345 -13 72 -36 170 -52 218 -16 49 -29 103
-29 122 0 90 -112 279 -230 388 -120 111 -302 184 -480 192 -47 2 -106 0 -132
-5z m258 -110 c119 -30 237 -93 307 -164 51 -53 127 -154 127 -171 0 -11 -35
14 -90 65 -68 64 -174 116 -261 130 -113 17 -218 -22 -317 -118 -99 -97 -142
-210 -142 -378 0 -194 42 -341 150 -524 101 -172 154 -275 190 -370 113 -294
170 -399 275 -504 79 -79 146 -117 254 -143 39 -9 71 -20 71 -24 0 -16 -120
-33 -235 -33 -106 -1 -125 2 -162 21 -50 27 -85 69 -141 167 -36 63 -43 85
-47 143 -11 171 -72 316 -228 538 -234 332 -298 484 -328 773 -28 271 48 490
194 561 110 53 250 65 383 31z"/>
<path d="M2785 5953 c-71 -97 -118 -266 -132 -468 -7 -118 17 -285 64 -430 44
-138 70 -170 103 -130 10 12 5 38 -28 137 -49 150 -65 242 -65 373 0 141 18
238 74 410 27 82 49 151 49 152 0 2 -7 3 -15 3 -8 0 -31 -21 -50 -47z"/>
<path d="M3810 5979 c0 -6 31 -43 68 -83 172 -181 195 -210 238 -301 89 -188
144 -481 144 -766 0 -94 11 -116 51 -104 21 7 22 9 16 184 -10 334 -75 614
-184 794 -82 135 -333 343 -333 276z"/>
<path d="M4668 5343 c-18 -16 -42 -33 -53 -39 -37 -20 -139 -320 -176 -519
-16 -87 -21 -160 -24 -350 -2 -152 -9 -287 -20 -369 -9 -71 -15 -162 -13 -202
3 -61 8 -79 33 -115 71 -101 197 -125 355 -68 155 57 166 58 279 20 134 -45
191 -33 251 54 67 98 87 227 55 362 -18 77 -188 504 -288 723 -150 330 -230
483 -266 507 -46 31 -92 30 -133 -4z m-57 -450 c-6 -87 -18 -233 -27 -325 -22
-231 -16 -486 15 -581 27 -83 69 -134 118 -143 20 -4 73 -1 119 6 68 11 88 11
115 0 l33 -14 -70 -12 c-38 -7 -106 -26 -152 -43 -152 -57 -251 -36 -281 58
-12 39 -12 58 4 160 11 75 20 218 25 406 6 242 11 307 30 395 25 117 69 265
76 257 3 -3 1 -76 -5 -164z"/>
<path d="M6642 4438 c-27 -29 -91 -101 -142 -160 -148 -173 -318 -310 -448
-358 -85 -32 -200 -60 -248 -60 -80 0 -125 -33 -91 -67 14 -14 27 -15 111 -5
282 35 496 166 747 459 90 105 133 168 144 216 11 43 -16 34 -73 -25z"/>
<path d="M3257 3794 c-4 -4 8 -34 25 -66 53 -100 183 -204 330 -267 60 -25 71
-26 228 -25 127 0 193 5 285 22 127 24 151 36 140 71 -8 26 -15 26 -162 0 -83
-16 -161 -22 -263 -22 -127 -1 -152 2 -201 21 -85 34 -167 90 -267 186 -89 84
-102 93 -115 80z"/>
<path d="M6124 9255 c-14 -36 9 -50 96 -57 45 -4 148 -16 229 -27 80 -12 218
-30 306 -41 88 -12 175 -24 193 -27 51 -9 38 13 -21 35 -121 45 -513 119 -689
129 -97 5 -108 4 -114 -12z"/>
<path d="M5491 9222 c-44 -9 -62 -35 -39 -58 18 -18 70 -16 436 18 210 19 150
35 -163 42 -110 3 -215 2 -234 -2z"/>
<path d="M6495 9036 c-50 -22 -83 -76 -65 -106 5 -8 17 -1 39 21 29 29 36 31
83 27 27 -3 54 -12 59 -19 40 -64 -60 -86 -247 -54 -49 8 -192 38 -317 67
-214 48 -229 50 -245 34 -32 -32 -4 -49 134 -83 249 -62 427 -95 540 -100 98
-5 115 -3 152 16 23 12 46 30 52 40 15 30 12 94 -6 120 -33 46 -118 64 -179
37z"/>
<path d="M6799 8974 c-18 -21 -1 -47 37 -55 50 -11 229 -10 218 1 -15 15 -184
70 -215 70 -14 0 -32 -7 -40 -16z"/>
<path d="M5484 8886 c-3 -8 -4 -23 -2 -33 4 -19 -19 -15 436 -82 302 -44 326
-46 318 -32 -18 29 -599 161 -708 161 -24 0 -41 -5 -44 -14z"/>
<path d="M10069 4237 c-46 -38 -249 -285 -406 -493 -83 -109 -177 -229 -207
-267 -104 -124 -225 -196 -496 -291 -260 -91 -456 -163 -489 -180 -34 -18 -40
-46 -16 -66 12 -10 24 -9 63 8 26 12 182 69 347 127 504 180 535 201 807 562
242 320 449 623 426 623 -2 0 -15 -10 -29 -23z"/>
</g>
</svg>
