<?xml version="1.0" standalone="no"?>
<!DOCTYPE svg PUBLIC "-//W3C//DTD SVG 20010904//EN"
 "http://www.w3.org/TR/2001/REC-SVG-20010904/DTD/svg10.dtd">
<svg version="1.0" xmlns="http://www.w3.org/2000/svg"
 width="1280.000000pt" height="1280.000000pt" viewBox="0 0 1280.000000 1280.000000"
 preserveAspectRatio="xMidYMid meet">

<g transform="translate(0.000000,1280.000000) scale(0.100000,-0.100000)"
fill="#000000" stroke="none">
<path d="M0 6400 l0 -6400 6400 0 6400 0 0 6400 0 6400 -6400 0 -6400 0 0
-6400z m7422 4453 c49 -74 56 -90 78 -164 12 -41 34 -96 48 -122 32 -60 162
-183 228 -217 27 -14 75 -42 108 -64 66 -44 197 -107 208 -100 15 9 -5 31 -81
86 -75 54 -79 59 -91 110 -6 29 -18 75 -27 101 -8 27 -12 51 -9 54 3 3 38 -17
78 -44 40 -28 120 -74 178 -103 58 -28 153 -79 212 -112 l107 -60 60 -103 c71
-118 84 -133 106 -115 21 17 19 34 -9 79 -29 46 -30 45 76 110 225 136 410
195 613 193 239 -1 425 -80 580 -244 65 -69 87 -102 143 -217 l67 -136 0 -105
c0 -96 -3 -110 -29 -165 -34 -69 -117 -154 -258 -268 -118 -94 -339 -250 -451
-318 -92 -56 -107 -73 -83 -97 17 -17 31 -13 117 39 l37 22 55 -55 c111 -109
226 -147 376 -124 97 14 97 14 87 -72 -14 -121 -57 -277 -102 -367 l-45 -90
-134 -69 c-289 -148 -569 -334 -821 -543 -68 -57 -130 -103 -136 -103 -7 0
-26 9 -43 21 -59 40 -169 91 -270 125 -124 41 -241 52 -365 35 -80 -12 -90
-11 -170 12 -47 14 -168 39 -270 57 -209 37 -411 84 -580 136 -130 41 -504
186 -537 209 -18 13 -63 122 -63 154 0 5 25 13 55 16 79 10 186 65 254 130 48
46 60 53 65 39 6 -15 23 -16 169 -11 238 8 290 30 326 136 23 70 4 214 -43
317 -14 30 -23 54 -20 54 12 0 110 -54 119 -66 14 -20 374 -195 507 -247 119
-47 216 -73 239 -64 10 3 9 7 -6 12 -11 5 -90 42 -175 83 -133 65 -151 76
-125 80 42 5 125 -12 328 -69 266 -75 268 -58 7 58 -19 9 27 10 190 6 163 -4
212 -3 204 6 -6 6 -46 18 -90 27 -140 27 -137 24 -49 50 44 13 93 27 109 30
16 4 52 21 81 38 29 17 88 51 132 76 69 39 75 45 51 48 -15 2 -43 -1 -63 -7
l-37 -10 16 24 c46 70 105 178 116 210 37 113 -64 284 -216 367 -74 40 -193
77 -301 93 -125 19 -291 20 -335 1 -18 -7 -64 -21 -103 -30 -104 -25 -276
-114 -374 -193 -246 -200 -290 -234 -338 -257 -79 -39 -148 -52 -178 -32 -44
29 -47 178 -5 258 24 47 20 71 -12 66 -54 -7 -98 -190 -70 -291 10 -35 9 -37
-15 -43 -14 -4 -94 -7 -177 -8 -122 0 -181 5 -305 27 -85 15 -156 29 -159 32
-3 2 10 21 28 42 51 58 73 117 67 175 -11 87 -72 168 -97 128 -4 -7 3 -35 16
-64 26 -56 30 -90 13 -133 -20 -54 -124 -143 -149 -128 -14 9 -102 129 -198
271 -100 148 -194 251 -256 282 -81 41 -313 85 -451 86 -105 1 -126 -2 -170
-22 -62 -28 -82 -47 -107 -96 -18 -35 -20 -53 -16 -145 6 -122 27 -187 88
-275 22 -31 37 -56 34 -56 -3 0 -62 32 -130 70 -69 39 -130 70 -135 70 -19 0
-8 -19 33 -57 64 -58 124 -96 248 -159 61 -31 110 -57 108 -59 -2 -2 -48 3
-103 10 -119 17 -115 17 -115 7 0 -23 164 -72 341 -102 132 -22 198 -36 206
-43 4 -5 -57 -11 -177 -20 -19 -1 -35 -6 -35 -12 0 -20 98 -36 185 -31 76 6
228 34 271 51 13 5 15 -3 11 -53 -5 -74 17 -121 89 -186 57 -51 186 -120 215
-114 11 2 19 12 19 23 0 15 -19 29 -71 55 -164 81 -226 172 -194 284 l12 43
81 23 c45 12 123 38 172 59 87 35 92 36 135 23 25 -7 113 -25 195 -39 200 -35
372 -37 459 -5 l59 22 43 -21 c39 -19 49 -19 101 -9 78 16 133 41 209 95 l63
45 -20 -45 c-11 -25 -22 -66 -25 -93 -6 -46 -5 -48 38 -82 23 -20 65 -51 91
-70 108 -77 -3 -33 -177 70 -90 53 -110 59 -120 34 -7 -17 26 -51 76 -78 36
-20 35 -14 74 -221 24 -126 14 -196 -33 -237 -26 -24 -152 -40 -283 -36 l-105
3 50 37 c28 21 65 40 83 44 36 7 41 19 13 34 -58 30 -131 -8 -233 -122 -93
-104 -170 -143 -284 -143 -72 0 -86 3 -130 30 -66 41 -86 75 -135 227 -57 177
-135 278 -215 278 -62 0 -77 -64 -14 -66 28 -1 43 -11 81 -52 37 -41 51 -67
73 -139 49 -160 68 -202 107 -247 39 -44 126 -96 161 -96 26 0 23 -12 -18 -67
-67 -89 -126 -142 -180 -162 -132 -50 -375 -70 -829 -71 l-260 0 -22 39 c-12
21 -53 62 -90 89 -185 139 -322 119 -467 -66 l-47 -59 -72 -7 c-40 -3 -124
-17 -187 -30 -85 -18 -118 -21 -126 -12 -6 6 -52 91 -103 190 -60 118 -85 176
-73 171 129 -55 161 -49 153 25 -1 8 -26 76 -56 150 -78 196 -99 283 -99 412
-1 58 2 110 6 114 12 11 45 -23 67 -71 18 -38 102 -125 122 -125 22 0 17 25
-15 78 l-35 57 9 135 c5 74 9 145 10 157 0 21 5 19 77 -27 42 -28 87 -53 100
-56 58 -15 99 57 90 155 -5 61 -38 135 -125 279 -64 106 -99 209 -117 352 -14
104 -14 125 1 230 20 136 40 199 87 272 144 225 410 361 643 328 210 -29 421
-154 484 -288 27 -56 42 -67 70 -52 29 16 126 98 262 222 105 97 120 108 114
82 -3 -16 -9 -69 -12 -119 -6 -79 -4 -93 12 -113 16 -20 23 -22 46 -13 15 6
67 15 115 21 226 29 403 96 613 233 70 45 75 47 78 28 4 -28 -40 -165 -85
-263 -37 -80 -38 -108 -3 -108 15 0 28 17 52 65 18 36 37 64 44 61 15 -6 99
38 157 82 50 38 150 152 206 235 17 26 36 47 41 47 30 0 82 -174 102 -336 6
-54 15 -103 19 -108 14 -16 31 46 35 124 3 69 6 78 47 135 24 33 65 95 91 138
68 110 97 122 138 60z m-5840 -573 c232 -48 419 -148 783 -420 279 -209 674
-594 911 -890 268 -333 572 -828 745 -1210 127 -282 242 -654 269 -873 17
-131 8 -303 -19 -387 -11 -36 -21 -77 -21 -92 0 -24 -4 -27 -52 -33 -78 -9
-420 -65 -439 -71 -13 -4 -26 20 -64 113 -326 820 -787 1669 -1228 2263 -281
379 -537 627 -1082 1045 -220 169 -389 310 -438 364 -48 54 -49 88 -3 129 46
40 123 64 281 86 61 9 261 -5 357 -24z m2415 -362 c-3 -8 -6 -5 -6 6 -1 11 2
17 5 13 3 -3 4 -12 1 -19z m-2671 -767 c248 -175 676 -583 928 -886 433 -520
812 -1177 984 -1705 50 -153 94 -329 86 -342 -3 -5 -23 -7 -45 -3 -36 6 -42 4
-71 -27 -71 -75 -268 -360 -393 -567 -31 -52 -40 -61 -49 -49 -6 8 -79 102
-162 209 -562 724 -859 1239 -1047 1814 -180 550 -383 1605 -308 1605 4 0 39
-22 77 -49z m-169 -143 c-3 -8 -6 -5 -6 6 -1 11 2 17 5 13 3 -3 4 -12 1 -19z
m2546 -221 c105 -207 155 -293 164 -283 4 3 26 -42 50 -100 24 -59 42 -108 41
-109 -2 -2 -40 14 -85 35 -50 24 -86 47 -93 61 -7 13 -62 99 -122 190 l-109
167 21 113 c11 62 20 114 20 116 0 2 3 3 8 3 4 0 51 -87 105 -193z m8427 -336
c74 -35 158 -79 187 -98 60 -39 173 -151 173 -170 0 -16 -47 -28 -215 -53
-285 -43 -654 -130 -875 -205 -417 -143 -841 -380 -1220 -683 -301 -240 -521
-464 -1000 -1017 -633 -730 -878 -953 -1245 -1130 -194 -94 -276 -118 -410
-119 -96 -1 -115 2 -152 22 -60 32 -73 63 -73 174 0 98 14 198 56 413 32 161
88 283 226 491 366 550 971 1183 1523 1594 276 205 706 445 895 499 108 31
241 81 270 102 14 10 76 34 139 53 319 100 803 166 1396 190 168 7 180 4 325
-63z m-5750 -352 c0 -6 -26 -39 -57 -75 -49 -55 -71 -71 -162 -114 -162 -78
-191 -84 -371 -80 -85 2 -182 3 -215 3 -128 -1 -515 20 -515 29 0 4 42 8 93 8
218 0 630 12 731 21 226 20 333 56 411 136 30 30 57 63 60 74 6 19 25 17 25
-2z m-1543 -36 c71 -33 163 -117 163 -149 0 -13 -20 -72 -45 -130 -25 -57 -45
-109 -45 -113 0 -4 -9 -18 -19 -30 -11 -13 -17 -29 -15 -36 3 -7 -6 -65 -20
-128 -14 -63 -33 -163 -42 -223 -8 -60 -17 -124 -20 -141 -3 -18 -8 -33 -12
-33 -4 0 -23 30 -42 67 -42 81 -62 103 -95 103 -22 0 -30 10 -56 67 -48 108
-97 264 -124 397 -32 157 -32 173 0 188 14 6 25 16 25 23 0 10 68 73 138 129
34 27 92 45 127 39 17 -3 54 -16 82 -30z m1828 -151 c384 -151 614 -212 1092
-289 62 -10 113 -20 113 -23 0 -3 -14 -19 -30 -37 l-29 -32 -43 15 c-24 8
-113 29 -198 45 -184 36 -513 117 -648 160 -154 50 -434 155 -500 188 l-61 31
20 35 c20 34 21 34 37 16 10 -10 121 -60 247 -109z m-2302 -82 c-9 -9 -244
-83 -247 -78 -9 15 -26 61 -23 64 2 2 64 16 138 31 128 27 134 27 137 9 2 -10
0 -22 -5 -26z m8155 -60 c6 0 12 -7 12 -15 0 -18 -416 -447 -490 -506 -233
-183 -420 -375 -753 -773 -560 -671 -739 -867 -952 -1044 -123 -103 -308 -227
-480 -323 -195 -108 -538 -274 -639 -308 -49 -16 -95 -36 -104 -45 -13 -13
-13 -17 2 -40 9 -14 22 -26 29 -26 41 0 226 77 435 180 495 244 744 413 1028
695 137 136 303 326 690 790 308 368 530 614 443 490 -44 -64 -202 -301 -424
-640 -599 -913 -1041 -1362 -1643 -1666 -190 -96 -496 -195 -742 -238 -91 -17
-97 -17 -138 1 -23 11 -97 31 -165 46 -107 23 -145 26 -312 27 -170 0 -197 -2
-260 -22 -103 -34 -151 -74 -207 -174 -25 -46 -94 -151 -152 -234 -59 -82
-128 -192 -155 -245 -57 -110 -126 -280 -136 -333 -4 -20 -9 -37 -12 -37 -2 0
-23 13 -46 28 -78 53 -147 69 -221 52 -144 -32 -489 -227 -638 -360 -38 -34
-96 -69 -175 -106 -292 -138 -522 -212 -788 -253 -281 -43 -267 -42 -321 -22
-58 22 -244 56 -399 72 -210 22 -563 -1 -769 -50 l-78 -19 -55 25 c-47 22 -65
25 -113 20 -79 -9 -161 -41 -219 -87 -53 -42 -96 -103 -85 -121 5 -9 -3 -10
-28 -5 -23 4 -67 -2 -132 -19 l-97 -25 -57 61 c-81 87 -129 161 -152 236 -24
77 -25 144 -5 273 44 283 49 341 36 404 -19 94 -59 170 -162 306 -175 230
-239 356 -276 535 -14 73 -18 138 -18 350 1 236 3 268 23 349 39 155 146 396
265 596 71 120 267 414 321 481 l45 57 128 30 c212 51 586 120 800 147 l52 7
-54 -124 c-60 -138 -82 -212 -91 -310 -8 -85 15 -139 81 -183 25 -16 47 -36
50 -44 7 -18 -20 -47 -114 -124 -82 -67 -136 -143 -166 -232 -15 -43 -36 -76
-78 -122 -75 -80 -135 -119 -205 -133 -66 -14 -102 -34 -102 -56 0 -12 6 -15
23 -11 12 3 55 9 95 13 56 5 83 13 116 36 66 43 182 170 196 214 7 21 21 57
32 81 l19 44 38 -33 c21 -18 65 -65 99 -103 33 -39 72 -77 86 -84 14 -8 26
-18 26 -22 0 -5 -33 -30 -73 -57 -92 -63 -137 -113 -183 -204 -39 -77 -94
-229 -94 -260 0 -41 23 -10 100 137 45 86 96 172 113 192 42 48 226 170 269
178 31 6 38 3 65 -29 18 -19 57 -78 89 -132 l58 -96 -13 -137 c-25 -256 -24
-247 -11 -234 17 16 58 159 76 269 15 88 15 94 -3 135 -24 53 -126 220 -156
255 -28 31 -121 58 -147 42 -27 -17 -74 7 -128 66 -26 28 -75 79 -109 113
l-62 61 87 71 c150 121 159 175 45 261 l-53 41 0 65 c0 86 19 157 79 296 72
166 72 166 106 172 16 2 145 10 286 17 199 10 308 10 495 1 532 -26 731 -83
1314 -379 335 -170 381 -187 439 -163 16 6 65 49 109 95 119 124 240 200 255
161 4 -9 -9 -69 -27 -134 -46 -160 -56 -213 -49 -258 9 -56 37 -118 67 -145
l25 -24 -14 -80 c-21 -120 -29 -283 -16 -331 18 -68 51 -106 118 -141 152 -77
362 -44 652 101 106 54 241 135 319 194 l52 39 44 -15 c38 -14 54 -15 103 -4
148 31 260 118 685 532 451 439 570 543 1003 876 397 305 568 423 821 567 287
163 669 343 895 422 202 70 527 149 574 139 11 -2 26 -4 33 -4z m-5817 -110
c45 -25 3 -60 -111 -94 -47 -14 -269 -35 -377 -36 -69 0 -28 18 90 39 169 31
231 46 307 75 78 30 67 28 91 16z m339 -43 c0 -25 -70 -132 -110 -168 -22 -20
-57 -45 -78 -54 -20 -10 -48 -28 -62 -40 -19 -18 -37 -23 -78 -23 -60 0 -82
-13 -82 -51 0 -19 -10 -34 -30 -49 l-30 -23 0 38 c0 21 -3 48 -6 59 -5 19 -1
22 46 26 56 6 99 37 121 90 8 20 15 26 22 19 7 -7 22 -4 46 11 51 30 174 124
201 153 26 28 40 32 40 12z m-1560 -17 c166 -13 359 -49 618 -115 117 -30 219
-55 227 -55 8 0 15 8 15 19 0 16 11 19 86 25 47 4 88 6 89 4 7 -7 -16 -497
-26 -560 -17 -106 -89 -238 -130 -238 -13 0 -29 91 -29 166 0 115 26 270 74
436 36 124 41 152 30 166 -24 32 -47 1 -81 -109 -17 -57 -40 -144 -49 -192
-17 -80 -20 -88 -39 -82 -94 27 -475 68 -510 55 -23 -9 -37 -49 -17 -51 15 -1
195 -8 366 -15 l178 -6 -6 -46 c-3 -24 -6 -53 -6 -63 0 -10 -12 -25 -28 -33
-23 -12 -30 -12 -47 0 -44 32 -100 16 -257 -74 l-56 -33 9 41 c7 30 5 49 -5
75 -21 49 -49 46 -172 -20 -57 -30 -106 -55 -109 -55 -3 0 -3 16 1 35 9 48 -2
85 -25 85 -10 0 -52 -16 -93 -35 -45 -21 -121 -45 -191 -60 -101 -22 -177 -31
-177 -22 0 1 20 52 45 112 47 116 51 135 35 166 -20 36 -56 23 -136 -51 -42
-39 -81 -69 -87 -67 -6 2 -17 38 -23 81 -14 85 -25 106 -60 106 -13 0 -24 3
-24 8 0 45 68 373 80 385 21 24 324 33 530 17z m2765 -16 c81 -10 203 -52 308
-107 53 -27 97 -54 97 -58 0 -5 -21 -28 -47 -51 -158 -140 -430 -420 -659
-677 l-31 -34 -43 64 -44 64 -9 125 c-15 218 6 475 46 571 26 63 98 97 237
112 36 4 59 2 145 -9z m-1560 -101 c-16 -54 -36 -75 -87 -96 l-36 -15 -7 36
c-3 21 -9 47 -12 60 -4 18 -1 22 18 22 13 1 47 9 74 20 28 10 53 19 57 19 4 1
1 -20 -7 -46z m114 -229 c1 -1 -7 -21 -20 -44 l-23 -41 -23 38 c-34 56 -31 64
20 57 23 -4 44 -8 46 -10z m-2322 -200 c56 -52 108 -94 117 -94 23 0 35 31 42
109 6 57 10 71 23 71 20 0 71 -98 71 -135 0 -18 8 -28 27 -36 30 -11 53 -6 53
13 0 7 10 18 23 23 17 8 23 21 27 54 7 64 26 62 34 -3 8 -74 21 -104 50 -117
37 -17 69 -4 132 53 32 29 55 46 52 38 -51 -129 -74 -177 -90 -189 -12 -8 -18
-21 -15 -32 3 -11 0 -32 -6 -49 -15 -41 -2 -48 31 -18 22 21 41 27 107 32 95
9 269 48 333 76 24 11 46 20 48 20 2 0 -17 -38 -42 -85 -41 -76 -44 -86 -28
-92 12 -4 25 3 43 24 16 18 40 33 61 37 19 3 83 33 143 66 59 33 110 60 113
60 7 0 -3 -97 -17 -181 -9 -54 -5 -89 11 -89 4 0 17 34 29 75 20 67 24 73 41
63 14 -9 31 -3 96 35 92 54 144 76 162 70 8 -3 12 -26 12 -64 0 -32 4 -59 8
-59 5 0 17 17 26 38 10 20 28 45 41 55 l24 17 5 -47 c11 -91 38 -157 71 -172
26 -13 33 -12 65 5 45 25 103 111 131 197 l22 69 19 -31 c43 -67 132 -57 253
29 l70 50 3 -29 c2 -16 -8 -57 -22 -92 -30 -73 -30 -69 -13 -69 7 0 23 17 36
39 l24 38 27 -31 c14 -17 36 -59 49 -93 20 -58 21 -65 6 -92 -13 -27 -13 -31
0 -45 22 -21 40 -11 70 40 48 82 95 81 136 -2 37 -78 98 -116 81 -52 -3 11 6
54 19 95 17 55 29 78 46 86 31 14 39 5 97 -102 27 -50 55 -91 61 -91 7 0 14
21 18 53 6 64 85 266 110 281 28 17 45 0 141 -141 l88 -131 -59 -73 c-32 -41
-70 -89 -84 -107 -26 -35 -113 -76 -268 -129 -66 -23 -75 -24 -83 -10 -22 40
-66 81 -103 98 -78 36 -129 22 -272 -73 -165 -110 -216 -133 -292 -132 -63 0
-76 5 -260 97 -107 53 -265 124 -350 157 -86 34 -165 65 -176 70 -49 22 -373
103 -500 125 -204 35 -430 48 -597 35 -120 -9 -343 -39 -418 -56 l-26 -5 0
128 c-1 128 -17 249 -52 395 l-19 77 31 -25 c17 -14 77 -68 133 -120z m2201
113 c-1 -1 -27 -15 -55 -30 -51 -27 -53 -27 -53 -8 0 12 6 21 13 21 7 0 28 11
47 24 30 20 36 22 43 9 5 -8 7 -15 5 -16z m6 -148 c6 -18 18 -35 26 -39 8 -4
27 -13 43 -21 15 -7 27 -16 27 -20 0 -10 -100 -59 -121 -59 -10 0 -26 12 -36
26 -10 15 -28 37 -39 50 -18 18 -21 31 -17 66 5 42 7 44 33 40 15 -2 31 1 35
8 10 16 36 -10 49 -51z m-1519 -449 c258 -23 476 -70 735 -158 209 -71 279
-101 524 -220 216 -105 221 -106 290 -106 88 0 140 22 312 135 174 114 214
116 284 14 17 -25 41 -47 53 -50 18 -5 80 11 210 52 12 4 -11 -40 -66 -123
-46 -71 -101 -160 -122 -199 -21 -38 -45 -78 -52 -87 -8 -9 -26 -67 -39 -129
-14 -62 -26 -114 -28 -116 -8 -8 -26 62 -26 98 0 20 16 92 36 160 45 157 51
206 30 247 -22 42 -50 56 -99 48 -73 -12 -264 -146 -317 -224 -36 -52 -63 -63
-109 -47 -20 7 -169 80 -331 163 -578 295 -801 358 -1360 383 -213 9 -575 0
-726 -17 l-56 -7 15 24 c8 13 20 40 26 60 11 34 15 37 64 44 78 12 76 11 168
29 171 33 395 43 584 26z m-2699 -748 c76 -101 153 -203 171 -226 l32 -42 -44
-63 c-25 -35 -73 -111 -107 -168 -34 -58 -64 -100 -66 -95 -2 6 2 37 7 68 6
32 11 73 11 91 0 30 5 36 43 53 56 25 112 73 103 88 -9 14 -75 16 -109 3 -22
-9 -26 -6 -46 44 -21 50 -22 60 -12 126 7 39 9 74 5 78 -9 9 -61 -57 -86 -108
l-21 -43 22 -52 c15 -36 21 -72 20 -121 0 -83 -32 -285 -42 -269 -11 19 -28
250 -27 359 1 55 -1 186 -5 290 -5 123 -4 186 2 180 6 -5 72 -93 149 -193z
m-239 116 c-3 -8 -6 -5 -6 6 -1 11 2 17 5 13 3 -3 4 -12 1 -19z m503 -467 c0
-6 -4 -13 -10 -16 -5 -3 -10 1 -10 9 0 9 5 16 10 16 6 0 10 -4 10 -9z m-483
-183 c-3 -7 -5 -2 -5 12 0 14 2 19 5 13 2 -7 2 -19 0 -25z m270 -420 c-3 -8
-6 -5 -6 6 -1 11 2 17 5 13 3 -3 4 -12 1 -19z m-10 -140 c-2 -13 -4 -5 -4 17
-1 22 1 32 4 23 2 -10 2 -28 0 -40z m7295 -276 c-49 -83 -140 -206 -235 -321
l-70 -84 -16 44 c-18 49 -54 73 -128 85 -35 5 -44 3 -49 -11 -9 -24 27 -68 65
-79 56 -16 56 -104 -1 -164 -31 -32 -152 -132 -159 -132 -2 0 -4 69 -4 153 -1
107 -6 177 -19 235 -10 46 -16 85 -14 86 2 1 60 19 130 39 161 46 306 104 433
171 55 29 102 51 104 50 2 -2 -15 -34 -37 -72z m-7285 -94 c-3 -8 -6 -5 -6 6
-1 11 2 17 5 13 3 -3 4 -12 1 -19z m5889 -68 c166 -15 231 -29 237 -51 3 -10
18 -24 34 -30 34 -14 173 -14 231 -1 23 5 44 7 45 3 2 -3 1 -87 -2 -186 l-6
-180 -45 -7 c-25 -4 -139 -19 -255 -33 -568 -71 -783 -127 -912 -240 -28 -25
-95 -110 -154 -195 -94 -137 -104 -149 -107 -122 -4 41 21 135 69 256 59 148
98 217 219 388 60 84 130 190 155 236 61 110 119 144 273 162 93 10 104 10
218 0z m721 -382 c-2 -18 -4 -6 -4 27 0 33 2 48 4 33 2 -15 2 -42 0 -60z
m-177 -166 c0 -60 -34 -221 -67 -322 -128 -389 -400 -735 -728 -929 -165 -98
-365 -174 -617 -236 -222 -55 -386 -76 -633 -82 -121 -3 -224 -9 -230 -13 -5
-4 -44 -13 -85 -19 -127 -20 -275 -70 -320 -109 -45 -38 -48 -47 -21 -61 14
-8 33 -6 67 4 26 8 50 13 52 11 6 -7 -44 -55 -148 -140 -58 -48 -125 -103
-148 -123 -132 -109 -259 -167 -437 -198 -186 -33 -371 -22 -545 30 -68 21
-191 64 -198 70 -2 1 6 18 18 37 22 38 31 109 15 114 -5 2 -25 -17 -43 -44
-64 -93 -47 -88 -158 -46 -55 20 -125 47 -156 60 -32 13 -62 24 -68 24 -7 0
-10 -17 -8 -42 3 -40 6 -44 46 -63 l43 -21 -42 -34 c-46 -37 -90 -55 -159 -65
-45 -6 -45 -6 -73 39 -46 73 -115 144 -147 151 -50 11 -54 -4 -13 -49 21 -23
56 -68 78 -101 70 -103 112 -140 178 -154 36 -8 61 -19 67 -31 9 -17 3 -21
-57 -40 -38 -11 -108 -27 -157 -36 -81 -14 -95 -14 -158 0 -112 25 -216 89
-358 219 l-64 57 44 45 c37 38 50 45 83 45 45 0 88 20 131 63 37 37 192 101
300 124 90 19 223 13 401 -18 218 -38 452 -27 555 26 16 8 31 11 34 7 3 -5
-19 -16 -49 -26 -59 -18 -74 -31 -56 -49 14 -14 236 12 418 49 210 42 377 105
628 236 58 30 207 126 290 186 22 16 164 101 315 187 151 87 314 184 361 216
204 136 319 254 355 364 9 28 20 52 23 55 4 3 20 28 36 55 53 93 198 295 236
330 106 95 286 144 772 211 144 19 285 41 312 49 77 20 85 19 85 -13z m-5973
-394 c-3 -8 -6 -5 -6 6 -1 11 2 17 5 13 3 -3 4 -12 1 -19z m-60 -510 c-3 -8
-6 -5 -6 6 -1 11 2 17 5 13 3 -3 4 -12 1 -19z m3304 -45 c-33 -62 -76 -87
-262 -154 -92 -33 -109 -36 -119 -24 -18 22 -36 18 -62 -14 -20 -24 -39 -32
-133 -54 -178 -41 -168 -41 -205 -2 -39 40 -44 37 100 59 206 33 478 112 642
186 53 24 51 24 39 3z m-1501 -133 c134 -10 350 -41 423 -61 21 -6 37 -15 35
-21 -2 -6 -29 -20 -59 -30 -54 -19 -55 -19 -138 3 -96 25 -159 22 -234 -10
-51 -22 -194 -44 -233 -36 -79 16 -74 13 -63 44 13 36 8 83 -8 88 -7 3 -31
-21 -55 -52 -55 -71 -90 -83 -186 -66 -82 15 -184 52 -189 68 -8 24 224 59
552 82 11 0 81 -4 155 -9z m-819 -66 c31 -30 40 -75 28 -158 -10 -75 -64 -244
-89 -276 l-19 -25 -35 40 c-19 22 -52 71 -73 109 -47 86 -120 168 -173 194
l-40 19 38 26 c113 74 250 122 306 106 16 -5 42 -20 57 -35z m1432 -75 c110
-73 212 -229 224 -342 5 -52 4 -56 -32 -96 -34 -37 -176 -145 -209 -157 -16
-6 -47 78 -71 191 -24 114 -14 384 15 420 17 20 20 20 73 -16z m965 -151 c23
-18 40 -37 38 -42 -1 -5 -49 -36 -107 -69 -57 -33 -153 -88 -214 -123 -140
-82 -318 -150 -464 -178 l-33 -6 56 60 c59 64 82 120 71 169 -6 27 -3 29 62
53 116 43 144 45 213 9 87 -45 115 -39 85 19 l-15 30 82 41 c91 46 144 67 169
68 9 1 35 -14 57 -31z m-2759 8 c10 -12 8 -13 -8 -9 -12 3 -21 9 -21 14 0 14
16 11 29 -5z m6 -111 c88 -51 142 -103 165 -160 15 -37 32 -61 50 -70 55 -29
47 -127 -21 -248 -69 -123 -63 -120 -116 -62 -117 127 -169 255 -180 436 -8
149 3 161 102 104z m-188 -97 c-3 -8 -6 -5 -6 6 -1 11 2 17 5 13 3 -3 4 -12 1
-19z m1445 -23 c65 -6 69 -8 108 -53 40 -46 41 -46 56 -27 9 11 14 34 12 51
l-4 32 86 4 c47 3 86 4 88 2 4 -2 42 -172 42 -184 0 -3 -39 -14 -87 -25 -125
-28 -306 -27 -483 4 -170 30 -345 33 -440 7 -89 -24 -221 -79 -282 -116 -40
-25 -49 -28 -43 -13 3 10 12 40 18 67 l12 48 119 60 c135 68 265 118 304 118
15 0 47 -13 71 -29 54 -36 75 -31 67 14 l-7 33 118 7 c65 3 123 8 128 10 6 1
19 1 30 -1 11 -1 50 -6 87 -9z m-37 -566 c77 -28 145 -54 152 -58 8 -4 -17
-14 -59 -24 -40 -10 -126 -34 -190 -54 l-117 -36 -34 37 c-19 20 -39 36 -46
36 -6 0 -11 5 -11 10 0 6 8 10 18 10 30 0 91 49 112 90 11 22 24 40 28 40 4 0
70 -23 147 -51z"/>
<path d="M4770 10524 c-256 -41 -488 -180 -566 -339 -48 -98 -35 -229 51 -510
64 -210 95 -269 126 -238 9 9 -1 50 -41 169 -105 321 -126 465 -81 556 48 101
207 213 386 274 101 34 222 38 305 10 69 -24 165 -71 207 -102 17 -13 34 -24
37 -24 30 0 -59 100 -121 137 -80 46 -227 79 -303 67z"/>
<path d="M4975 10279 c-94 -9 -153 -25 -177 -47 -25 -21 -23 -71 3 -98 l22
-23 -24 -5 c-269 -62 -279 -65 -279 -96 0 -27 26 -38 114 -46 42 -4 78 -10 81
-13 2 -4 -30 -43 -72 -86 -112 -118 -243 -285 -243 -311 0 -17 17 -34 34 -34
2 0 33 41 70 90 37 50 119 144 182 209 70 73 114 126 114 139 0 25 -35 52 -67
52 -54 0 -16 17 75 34 102 19 182 52 182 75 0 9 -11 12 -40 9 -33 -3 -46 2
-77 28 l-38 32 26 10 c14 6 69 15 123 22 116 14 231 41 231 55 0 13 -135 15
-240 4z"/>
<path d="M9170 10213 c-125 -22 -353 -128 -427 -199 -39 -37 -43 -45 -33 -63
6 -12 20 -21 32 -21 39 0 149 -63 203 -117 31 -31 68 -82 87 -121 23 -48 39
-68 54 -70 22 -3 27 6 61 108 3 9 11 -3 20 -30 15 -47 64 -172 70 -179 2 -3
24 15 49 40 l47 44 -7 -105 c-3 -58 -15 -136 -26 -174 -10 -38 -17 -73 -14
-78 17 -28 179 26 308 101 195 114 291 282 265 464 -25 182 -185 343 -390 392
-60 14 -237 19 -299 8z m293 -69 c33 -8 83 -27 111 -41 68 -35 161 -125 191
-187 102 -209 6 -414 -255 -543 -130 -64 -154 -72 -146 -46 12 39 26 162 26
236 0 64 -3 80 -20 97 -28 28 -48 25 -85 -14 l-31 -34 -18 66 c-43 163 -106
206 -139 94 l-13 -43 -32 50 c-44 67 -121 134 -192 168 -33 15 -59 31 -59 35
-2 24 215 130 321 158 93 24 256 26 341 4z"/>
<path d="M3620 8102 c0 -4 21 -66 46 -137 162 -454 255 -798 334 -1233 17 -92
27 -125 41 -132 22 -12 47 -3 54 19 6 21 -50 313 -110 573 -90 387 -186 652
-312 861 -31 51 -53 72 -53 49z"/>
<path d="M1470 8863 c0 -60 42 -279 89 -469 179 -712 520 -1412 1146 -2349
111 -167 122 -180 150 -180 48 0 45 37 -9 111 -88 121 -388 595 -531 839 -163
279 -342 641 -462 933 -91 223 -280 802 -339 1037 -26 102 -44 134 -44 78z"/>
<path d="M8134 6551 c-97 -69 -243 -262 -362 -476 -121 -216 -319 -677 -307
-714 7 -23 31 -34 51 -23 8 5 46 87 85 183 83 205 194 439 275 576 64 110 235
367 283 427 50 62 39 74 -25 27z"/>
<path d="M5295 5396 c-113 -53 -299 -217 -386 -339 -99 -140 -102 -216 -20
-456 29 -84 61 -191 70 -239 16 -75 21 -87 40 -90 13 -2 24 3 28 13 10 27 -24
165 -83 342 -63 190 -68 244 -29 326 52 112 269 323 392 383 46 23 62 26 125
22 40 -3 106 -11 145 -19 133 -24 114 24 -25 62 -95 27 -194 25 -257 -5z"/>
<path d="M5422 5244 c-60 -16 -125 -55 -232 -141 -139 -111 -184 -157 -202
-209 -20 -55 -21 -49 55 -309 43 -147 62 -284 53 -383 -4 -42 -26 -133 -51
-213 -102 -324 -97 -508 18 -636 141 -156 367 -111 647 129 121 104 201 220
297 432 140 308 194 486 194 641 1 181 -44 271 -218 436 -165 156 -285 234
-401 258 -67 14 -94 13 -160 -5z m169 -80 c53 -15 159 -72 159 -85 0 -3 -24
-2 -52 3 -161 27 -308 -50 -384 -200 -26 -52 -29 -66 -29 -157 0 -85 5 -115
33 -200 48 -150 50 -181 14 -321 -40 -156 -52 -247 -52 -408 0 -197 25 -294
99 -378 17 -20 31 -38 31 -41 0 -2 -29 -13 -65 -22 -108 -30 -187 -4 -244 79
-73 105 -67 259 19 528 22 70 45 162 52 206 19 139 -10 320 -91 570 -30 89
-30 93 -15 132 17 42 121 137 256 233 108 77 167 91 269 61z"/>
<path d="M7010 5151 c0 -86 36 -283 62 -338 42 -89 130 -153 247 -178 49 -10
36 12 -27 50 -76 44 -140 101 -161 143 -21 42 -47 156 -56 252 -12 124 -13
130 -40 130 -24 0 -25 -3 -25 -59z"/>
<path d="M6124 5063 c4 -10 42 -83 85 -163 86 -158 111 -227 111 -304 0 -65
-22 -201 -61 -374 -27 -122 -28 -137 -14 -151 28 -28 44 8 80 175 65 303 68
398 21 515 -32 81 -109 206 -164 269 -44 50 -70 65 -58 33z"/>
<path d="M3145 4889 c-242 -24 -368 -190 -368 -484 1 -268 71 -465 269 -745
112 -159 147 -224 170 -316 14 -53 15 -73 6 -97 -11 -28 -7 -38 46 -131 102
-180 150 -217 297 -224 229 -11 393 59 426 180 15 57 6 110 -31 194 -71 157
-75 187 -72 506 4 312 -4 393 -53 545 -13 43 -25 90 -25 105 0 66 -86 215
-173 303 -83 82 -247 154 -382 167 -22 2 -71 1 -110 -3z m204 -96 c66 -18 165
-66 205 -100 52 -43 151 -173 132 -173 -3 0 -31 23 -62 50 -121 106 -248 141
-357 100 -75 -28 -167 -113 -201 -183 -53 -112 -58 -249 -16 -411 24 -94 45
-139 143 -309 41 -70 91 -171 111 -225 71 -185 142 -317 208 -388 34 -36 80
-76 103 -90 46 -26 127 -54 163 -54 45 0 20 -18 -41 -29 -105 -18 -221 -14
-267 9 -69 35 -150 167 -155 254 -5 78 -41 201 -79 271 -19 33 -77 123 -131
200 -165 239 -222 378 -246 603 -23 223 38 395 163 456 95 46 207 53 327 19z"/>
<path d="M2756 4808 c-55 -83 -87 -209 -93 -363 -6 -143 6 -227 53 -372 28
-86 42 -107 67 -97 22 8 22 20 -8 108 -39 116 -55 209 -55 316 0 118 17 210
64 349 20 58 36 106 36 108 0 2 -7 3 -15 3 -8 0 -30 -24 -49 -52z"/>
<path d="M3607 4853 c-3 -5 45 -62 107 -129 85 -92 119 -137 143 -190 67 -146
103 -325 119 -597 4 -82 10 -110 21 -114 29 -11 36 15 34 128 -4 272 -64 529
-157 675 -42 67 -137 164 -199 203 -51 33 -61 36 -68 24z"/>
<path d="M4318 4335 c-16 -9 -28 -20 -28 -25 0 -6 -7 -10 -16 -10 -19 0 -50
-68 -97 -215 -59 -184 -68 -246 -78 -530 -5 -143 -13 -282 -18 -310 -28 -147
-2 -230 88 -277 71 -37 118 -36 251 8 l109 37 83 -27 c99 -31 123 -32 165 -6
92 56 131 218 89 365 -58 198 -379 921 -435 978 -24 25 -80 31 -113 12z m-65
-461 c-10 -121 -18 -309 -18 -419 0 -185 2 -204 23 -257 13 -32 35 -67 50 -79
25 -20 35 -21 127 -15 61 4 106 2 115 -4 12 -8 9 -10 -13 -10 -15 0 -76 -16
-135 -36 -132 -44 -181 -43 -224 5 -23 26 -28 40 -27 84 0 28 4 75 10 102 5
28 14 169 19 315 6 177 14 286 25 330 23 98 57 211 62 206 2 -2 -4 -102 -14
-222z"/>
<path d="M5848 3499 c-224 -261 -389 -365 -615 -387 -64 -7 -68 -8 -68 -32 0
-25 1 -25 76 -23 155 3 334 86 479 220 139 129 270 295 270 343 0 31 -41 -4
-142 -121z"/>
<path d="M3155 3061 c-10 -17 33 -90 81 -137 56 -56 151 -118 217 -141 69 -24
275 -24 402 1 125 24 127 24 123 49 -4 27 -29 28 -179 4 -133 -21 -227 -22
-304 -2 -60 16 -166 77 -201 117 -43 47 -133 118 -139 109z"/>
<path d="M5504 7525 c-12 -31 4 -45 53 -45 26 0 93 -7 148 -15 55 -7 174 -23
265 -34 91 -11 180 -23 198 -27 58 -12 35 14 -30 34 -130 41 -479 101 -581
102 -33 0 -49 -5 -53 -15z"/>
<path d="M5013 7502 c-55 -3 -77 -19 -67 -47 6 -16 17 -17 88 -11 364 28 434
39 315 50 -82 7 -269 12 -336 8z"/>
<path d="M5798 7344 c-31 -16 -48 -43 -48 -73 0 -27 8 -26 32 4 14 18 29 25
54 25 42 0 74 -15 74 -35 0 -56 -158 -45 -498 36 -68 16 -134 29 -148 29 -27
0 -43 -25 -26 -42 26 -26 478 -118 580 -118 122 0 179 58 137 139 -24 47 -103
65 -157 35z"/>
<path d="M6054 7295 c-11 -29 4 -42 58 -48 74 -9 158 -9 158 1 0 11 -153 62
-185 62 -14 0 -28 -7 -31 -15z"/>
<path d="M4981 7226 c-27 -32 -5 -41 170 -68 495 -77 574 -75 239 7 -110 27
-273 60 -346 70 -39 5 -53 3 -63 -9z"/>
<path d="M8719 3408 c-58 -58 -224 -262 -346 -425 -148 -198 -225 -276 -323
-327 -41 -22 -198 -84 -349 -138 -152 -54 -282 -105 -290 -112 -22 -23 -6 -49
27 -43 28 5 518 182 587 212 62 27 166 98 214 146 88 89 533 701 519 714 -3 3
-20 -9 -39 -27z"/>
</g>
</svg>
